<?xml version="1.0" standalone="no"?>
<!DOCTYPE svg PUBLIC "-//W3C//DTD SVG 20010904//EN"
 "http://www.w3.org/TR/2001/REC-SVG-20010904/DTD/svg10.dtd">
<svg version="1.0" xmlns="http://www.w3.org/2000/svg"
 width="500.000000pt" height="500.000000pt" viewBox="0 0 500.000000 500.000000"
 preserveAspectRatio="xMidYMid meet">
<metadata>
Created by potrace 1.11, written by Peter Selinger 2001-2013
</metadata>
<g transform="translate(0.000000,500.000000) scale(0.100000,-0.100000)"
fill="#000000" stroke="none">
<path d="M0 2500 l0 -2500 2500 0 2500 0 0 2500 0 2500 -2500 0 -2500 0 0
-2500z m2848 1531 c320 -62 573 -224 733 -469 78 -118 117 -239 144 -444 l6
-48 -270 0 -270 0 -11 43 c-36 142 -85 232 -171 313 -105 99 -239 145 -419
145 -186 0 -325 -51 -445 -163 -189 -177 -278 -439 -278 -818 1 -311 58 -537
178 -705 125 -175 304 -265 530 -265 334 0 563 193 609 513 l7 47 275 0 274 0
0 -22 c0 -45 -30 -205 -51 -274 -76 -249 -257 -469 -486 -591 -101 -54 -260
-107 -388 -129 -135 -23 -377 -23 -505 0 -379 68 -660 276 -834 616 -122 238
-176 491 -176 824 0 829 414 1366 1116 1446 111 12 315 3 432 -19z"/>
</g>
</svg>
