<?xml version="1.0" encoding="utf-8"?>
<!-- Generator: Adobe Illustrator 19.0.0, SVG Export Plug-In . SVG Version: 6.00 Build 0)  -->
<svg version="1.1" id="CitodonLogo" xmlns="http://www.w3.org/2000/svg" xmlns:xlink="http://www.w3.org/1999/xlink" x="0px"
	 y="0px" viewBox="0 0 1000 840" style="enable-background:new 0 0 1000 840;" xml:space="preserve">
<g id="CitodonLogoArrow">
	<path id="CitodonLogoArrow-path" inkscape:connector-curvature="0" d="M274.1,661.5c-130.3,8-272.7-31.6-78.8-183.3
		c197.6-142.3,437.7-206.7,685.8-248l0,38.7l81.5-57L880.4,148v39.9c-417,59.4-638.3,186-736.9,267.8c-9.5,7.9-20.4,18.5-28.5,27.3
		C-23.1,629.2,121.9,726.5,274.1,661.5L274.1,661.5z"/>
</g>
<g id="CitodonLogoTeethBorder">
	<path id="CitodonLogoTeethBorder-path_3_" inkscape:connector-curvature="0" d="M745,197.3l49.8-10.1c-4.8-61.2-31-97-72.5-126.3
		c-40.7-25.6-89-23.8-142,5.4C556,79.9,531.6,91.1,507.3,92c22.1,8.8,51.7,2.4,82.1-5.4C717.8,56.6,732.4,132.1,745,197.3L745,197.3
		z"/>
	<path id="CitodonLogoTeethBorder-path_2_" inkscape:connector-curvature="0" d="M422.9,740.6c-3.3-44.4,8.7-88.7,21.1-133.1
		c19.3-66.9,84.9-58.5,93.2,0c8.9,52.8,7,107.8,31,157.6c19.4,41.9,84,44.9,110.5,0c29.3-53.8,32.9-113.6,35.6-173.7
		c1-57-22.3-133.1,3.4-165.2c42.7-50.4,81.5-104.3,83.8-166l-50.8,10.2c-9.5,69.4-46.1,105.8-68.6,159.2
		c-6.9,18.7-6.1,42.2,3.4,69.5c14.6,71,15.8,138.4-11,198.3c-25.4,63.9-66.9,89.9-77.9,0c-7.6-50.3-11-100.9-35.6-147.4
		c-25.9-54.7-98.9-55.7-132.2,0C402.6,598.4,414.3,675.4,422.9,740.6L422.9,740.6z"/>
	<path id="CitodonLogoTeethBorder-path_1_" inkscape:connector-curvature="0" d="M231.2,379.9l53.3-30.7
		c-36.1-49.6-39.5-111.9-32.5-155.3c17.5-81.8,71-100,127-75.5c49,24.2,98.9,45.8,155.8,47.9c40.8,4.5,70.4-9.3,95.3-33.5
		c-96,12.1-148-13.2-200.7-47.9c-97.6-59.1-219.7-87.3-242.2,127C183.3,270.9,197.2,330.4,231.2,379.9L231.2,379.9z"/>
	<path id="CitodonLogoTeethBorder-path" inkscape:connector-curvature="0" d="M351,741.3c-66.9-86.4-67.4-156.1-43.1-249
		c6.9-26.3,15-30.5,12-71.9l-53.5,32c-2.8,62-6,118.7,6.3,180.5C283.7,685.1,318.1,717.5,351,741.3z"/>
</g>
<g id="CitodonLogoTeeth">
	<path id="CitodonLogoTeeth-path_1_" d="M668.8,423.6c5.8-17.7,14.6-34.5,23.4-50.9c6.8-12.7,13.6-25.3,19.4-38.5
		c5.3-12.1,13.9-27.7,7.8-40.8c-6.2-13.4-21-10.5-32.8-7.6c-63.1,15.5-126.3,31.1-187.9,51.7c-31.6,10.6-62.7,22.5-93,36.4
		c-14.6,6.7-69.1,24.6-70.9,43.8c-0.3,2.8,0.6,5.5,1.4,8.1c6.6,22.8,4.6,47.1,0.3,70.5c-4.3,23.3-10.7,46.3-12.7,69.9
		c-3.7,43.2,7.6,91.5,35.1,125.6c5.4,6.7,10.9,17.5,21.2,13.2c7.2-3,5.2-11,4.7-17c-3.5-44-5.3-96.7,17-136.3
		c12.9-22.9,34.3-40.9,59-50.1c24.7-9.2,52.4-9.8,77.6-2.2c5.8,1.7,11.5,3.9,16.5,7.4c5.3,3.8,9.5,8.9,13.5,14.1
		c10.6,13.9,20.4,28.6,27.7,44.4c18.3,39.5,19.3,82.6,25,124.8c0.9,6.3,1.6,12.7,2.4,19c0.5,4,4.9,19.4,2.9,22.5
		c35.5-53.8,56.1-120.6,48-185.3c-3.9-31.2-14.4-62-11.7-93.4C663.4,442.9,665.6,433.1,668.8,423.6z"/>
	<path id="CitodonLogoTeeth-path" d="M323.6,328.8c89.9-41.9,184.8-72.5,280.7-97.3c32.7-8.4,65.6-15.7,98.8-21.8
		c6-1.1,12.5-2.5,16.2-7.4c5.5-7.3,1.5-18.3,0.2-26.3c-1.8-10.8-4.6-21.6-8.9-31.7c-6-14-15.3-26.9-28.1-35.1
		c-21-13.4-48-12.3-72.5-7.9s-49,11.8-73.8,9.4c26.3,17.7,56.4,15.7,86.5,15.4c2.8,0,6.3,0.5,7,3.1c0.3,1.1,0,2.3-0.5,3.3
		c-1.8,3.3-5.7,4.5-9.3,5.6c-3.5,1.1-7.5,2.8-8.7,6.3c-1.4,4,1.5,8.2,1.7,12.5c0.2,4.5-2.6,8.7-6.2,11.3
		c-9.4,6.8-24.3,9.6-35.3,12.6c-13.4,3.7-27.2,6.5-41.1,7.4c-27.6,1.8-55.1-3.8-82-10.1c-18.1-4.2-36.2-8.8-53.9-14.8
		c-17.6-6-33.6-16-51.5-21.4c-18.7-5.6-41.6-4.8-54.8,9.8c-6.4,7.1-9.6,16.5-12,25.8c-13,50.1-7.8,104.7,14.5,151.3
		c1.3,2.8,2.9,5.7,5.6,7.3c4.7,2.8,10.6,0.4,15.6-1.9C315.7,332.5,319.7,330.6,323.6,328.8z"/>
</g>
</svg>
